<?xml version="1.0" standalone="no"?>
<!DOCTYPE svg PUBLIC "-//W3C//DTD SVG 20010904//EN"
 "http://www.w3.org/TR/2001/REC-SVG-20010904/DTD/svg10.dtd">
<svg version="1.0" xmlns="http://www.w3.org/2000/svg"
 width="1200.000000pt" height="1200.000000pt" viewBox="0 0 1200.000000 1200.000000"
 preserveAspectRatio="xMidYMid meet">
<metadata>
Created by potrace 1.11, written by Peter Selinger 2001-2013
</metadata>
<g transform="translate(0.000000,1200.000000) scale(0.100000,-0.100000)"
fill="#000000" stroke="none">
<path d="M7250 8890 c-19 -3 -52 -5 -72 -5 -21 0 -38 -2 -38 -5 0 -3 -12 -5
-27 -4 -16 0 -39 -3 -53 -7 -14 -4 -43 -10 -65 -13 -22 -3 -53 -10 -69 -16
-16 -6 -45 -13 -65 -16 -20 -3 -37 -10 -39 -14 -2 -5 -10 -6 -18 -3 -8 3 -14
0 -14 -7 0 -6 -4 -9 -10 -5 -5 3 -17 1 -27 -4 -26 -14 -57 -24 -65 -23 -5 1
-8 -2 -8 -8 0 -5 -7 -7 -15 -4 -8 4 -15 1 -15 -5 0 -6 -8 -11 -18 -11 -10 0
-24 -6 -30 -12 -7 -7 -16 -13 -20 -13 -15 0 -128 -60 -140 -74 -8 -9 -10 -10
-7 -3 6 11 3 11 -14 0 -12 -7 -21 -16 -21 -21 0 -4 -4 -5 -10 -2 -5 3 -10 1
-10 -5 0 -6 -4 -8 -10 -5 -5 3 -10 1 -10 -4 0 -6 -6 -11 -13 -11 -7 0 -24 -11
-39 -25 -15 -14 -31 -25 -36 -25 -5 0 -21 -12 -36 -26 -14 -15 -26 -24 -26
-20 0 4 -17 -10 -38 -31 -21 -21 -42 -39 -46 -40 -15 -3 -85 -71 -79 -77 4 -3
0 -6 -8 -6 -16 0 -200 -186 -192 -193 3 -3 -5 -10 -16 -17 -12 -6 -18 -16 -15
-22 4 -7 3 -8 -4 -4 -6 3 -16 -3 -23 -15 -6 -12 -25 -38 -43 -57 -17 -18 -29
-36 -28 -39 2 -3 -1 -9 -7 -12 -29 -18 -188 -255 -183 -272 1 -5 -2 -9 -8 -9
-5 0 -19 -19 -31 -42 -12 -23 -28 -48 -35 -56 -8 -7 -12 -18 -9 -23 4 -5 3 -9
-2 -9 -8 0 -36 -54 -33 -66 1 -3 -6 -11 -15 -18 -9 -6 -17 -19 -18 -28 -2 -9
-9 -23 -16 -32 -7 -9 -10 -16 -7 -16 4 0 0 -7 -8 -16 -9 -8 -14 -20 -11 -25 4
-5 1 -9 -5 -9 -6 0 -8 -4 -5 -10 3 -5 1 -10 -5 -10 -6 0 -8 -4 -5 -10 3 -5 3
-10 -2 -10 -4 0 -13 -11 -20 -25 -8 -19 -8 -23 0 -18 7 3 4 -3 -5 -14 -10 -11
-18 -22 -18 -25 0 -3 -10 -27 -22 -54 -12 -27 -23 -51 -23 -54 -1 -3 -10 -25
-21 -50 -10 -25 -17 -49 -16 -54 2 -5 -2 -12 -8 -16 -6 -4 -12 -13 -13 -21 -2
-8 -6 -20 -10 -26 -5 -7 -6 -13 -3 -13 3 0 -1 -12 -9 -27 -8 -15 -12 -30 -9
-35 3 -4 0 -8 -6 -8 -7 0 -10 -7 -6 -15 3 -8 0 -15 -6 -15 -6 0 -8 -3 -5 -6 3
-4 2 -15 -4 -26 -6 -11 -12 -27 -14 -36 -2 -9 -10 -36 -19 -59 -8 -24 -13 -43
-9 -43 3 0 1 -6 -4 -12 -9 -12 -33 -97 -34 -123 -1 -5 -5 -17 -10 -26 -4 -9
-11 -29 -14 -45 -8 -39 -13 -59 -15 -59 -1 0 -3 -10 -6 -22 -2 -13 -6 -33 -8
-45 -3 -13 -5 -23 -7 -23 -1 0 -3 -9 -5 -20 -1 -11 -5 -31 -8 -45 -4 -14 -9
-38 -11 -55 -3 -16 -8 -37 -11 -46 -2 -9 -7 -35 -9 -58 -2 -23 -6 -45 -9 -49
-2 -4 -7 -29 -10 -57 -4 -27 -9 -64 -12 -81 -3 -17 -7 -48 -9 -70 -3 -21 -7
-59 -10 -84 -13 -102 -21 -215 -24 -333 -1 -26 -5 -37 -13 -34 -7 2 -14 9 -14
15 -1 7 -3 15 -4 20 -1 4 -2 10 -1 15 0 4 -3 7 -7 7 -5 0 -9 6 -9 13 -1 17
-44 140 -54 153 -5 6 -6 14 -2 17 3 4 1 13 -5 20 -7 8 -9 17 -5 20 3 4 1 7 -5
7 -6 0 -9 6 -6 14 3 8 0 17 -5 21 -6 3 -9 11 -6 16 4 5 2 9 -3 9 -5 0 -9 6
-10 13 0 6 -3 19 -5 27 -3 8 -8 30 -12 48 -4 17 -11 32 -15 32 -3 0 -7 6 -8
13 -2 26 -13 71 -23 89 -5 10 -7 18 -4 18 3 0 0 10 -7 23 -7 12 -11 28 -10 35
2 6 -2 12 -8 12 -6 0 -8 5 -5 10 4 6 1 17 -5 25 -7 8 -10 15 -7 15 4 0 -1 19
-9 43 -9 23 -17 49 -19 57 -2 8 -4 15 -5 15 -1 0 -3 7 -5 15 -1 8 -15 55 -30
104 -15 49 -29 97 -30 105 -2 9 -4 17 -5 19 -2 1 -4 7 -5 12 -1 6 -3 11 -5 13
-1 1 -3 9 -5 17 -2 8 -7 26 -10 40 -4 14 -7 31 -7 38 -1 6 -5 12 -10 12 -5 0
-6 5 -3 10 3 6 3 16 -2 23 -4 6 -9 17 -10 22 -14 59 -26 100 -31 110 -3 5 -7
22 -9 39 -2 16 -8 34 -13 41 -5 7 -7 14 -4 17 3 3 -2 22 -10 42 -8 20 -13 36
-11 36 3 0 0 11 -5 26 -6 14 -12 39 -15 56 -3 17 -9 36 -12 42 -4 5 -8 24 -10
41 -2 16 -6 37 -10 45 -3 8 -7 18 -7 22 -1 3 -4 9 -8 13 -4 4 -4 13 -2 20 3 7
1 16 -5 19 -6 4 -8 13 -4 21 3 8 1 15 -3 15 -5 0 -10 10 -11 23 -2 21 -9 56
-13 67 -1 3 -3 10 -5 15 -1 6 -3 13 -5 18 -4 11 -5 18 -14 64 -4 24 -12 45
-16 48 -5 3 -7 12 -4 20 3 8 2 20 -2 27 -4 7 -9 19 -10 28 -1 8 -5 26 -9 40
-3 14 -8 32 -10 40 -2 8 -4 15 -5 15 -1 0 -3 9 -5 20 -2 11 -6 31 -10 45 -4
14 -8 34 -10 45 -2 11 -4 20 -5 20 -1 0 -3 7 -5 15 -2 8 -6 29 -10 45 -3 17
-9 46 -12 65 -3 19 -9 37 -13 40 -4 3 -6 13 -4 23 1 9 -1 17 -5 17 -4 0 -7 10
-6 23 1 12 -2 28 -8 35 -5 6 -7 12 -4 12 3 0 1 15 -5 33 -5 17 -12 45 -14 62
-2 16 -7 39 -11 50 -4 11 -7 22 -8 25 -1 3 -5 28 -10 55 -8 49 -10 58 -15 73
-1 4 -2 11 -1 16 1 5 -1 16 -5 25 -4 9 -8 19 -9 24 -2 4 -4 9 -5 12 -3 6 -5
12 -15 43 -4 12 -12 22 -17 22 -5 0 -7 3 -4 8 2 4 -1 14 -7 23 -17 22 -93 77
-82 59 8 -13 7 -13 -9 0 -10 8 -25 16 -35 18 -9 1 -32 6 -51 10 -78 15 -914 5
-1090 -13 -25 -3 -67 -6 -95 -9 -27 -2 -66 -7 -85 -11 -39 -8 -53 -10 -125
-20 -27 -3 -58 -8 -67 -11 -9 -3 -27 -7 -40 -10 -13 -3 -27 -6 -33 -8 -5 -2
-38 -9 -72 -16 -35 -8 -63 -18 -63 -23 0 -4 -4 -6 -8 -3 -12 7 -112 -26 -112
-36 0 -5 -4 -7 -9 -3 -5 3 -40 -9 -78 -27 -37 -17 -74 -33 -82 -34 -8 -1 -18
-9 -22 -16 -5 -7 -9 -10 -9 -5 0 12 -60 -22 -60 -34 0 -6 -5 -7 -10 -4 -6 3
-13 0 -16 -8 -2 -7 -10 -14 -17 -14 -16 0 -97 -53 -97 -64 0 -4 -9 -11 -20
-14 -11 -3 -20 -13 -20 -21 0 -8 -4 -13 -8 -11 -4 1 -32 -22 -62 -52 -30 -30
-49 -51 -41 -46 10 5 12 4 7 -3 -4 -7 -14 -12 -22 -12 -8 0 -14 -4 -14 -8 0
-5 -11 -22 -24 -37 -14 -16 -23 -32 -20 -37 3 -4 1 -8 -5 -8 -6 0 -18 -15 -27
-32 -9 -18 -21 -36 -26 -39 -5 -3 -10 -15 -11 -27 0 -12 -7 -24 -14 -26 -7 -3
-13 -14 -13 -25 0 -11 -4 -22 -9 -25 -23 -15 -59 -210 -40 -222 5 -3 7 -10 4
-15 -13 -20 49 -124 67 -113 4 3 7 0 6 -7 -6 -24 93 -63 162 -65 65 -1 146 23
162 49 4 7 8 8 8 4 0 -12 68 57 72 73 2 8 9 20 16 25 7 6 14 17 15 25 2 8 6
21 10 28 5 6 6 12 2 12 -3 0 0 10 7 23 7 13 13 74 14 157 2 74 5 146 8 160 19
84 20 86 33 120 6 14 8 29 5 34 -3 5 0 6 6 2 11 -6 17 13 13 37 -1 5 2 6 7 3
8 -5 34 36 36 56 1 3 5 10 10 15 6 5 6 2 1 -7 -4 -8 1 -6 12 5 11 11 19 23 16
28 -2 4 4 7 13 7 10 0 15 3 11 6 -10 10 82 75 171 121 45 23 85 42 87 43 3 0
6 0 8 1 12 4 44 10 55 11 6 1 12 5 12 10 0 5 4 7 9 4 5 -3 22 -2 37 4 29 9 54
14 149 27 67 10 401 9 445 -1 19 -5 42 -9 50 -10 8 0 18 -5 21 -9 3 -4 15 -9
27 -10 12 0 24 -7 26 -14 3 -7 12 -13 21 -13 8 0 15 -5 15 -11 0 -5 5 -7 10
-4 5 3 10 -1 10 -9 0 -9 6 -16 14 -16 8 0 18 -5 22 -12 5 -7 3 -8 -5 -3 -10 5
-9 2 0 -13 7 -12 17 -18 23 -15 5 3 6 1 2 -5 -3 -6 0 -16 7 -24 8 -7 12 -19 9
-26 -2 -6 2 -12 9 -12 7 0 10 -3 7 -6 -4 -3 -2 -20 3 -37 24 -81 30 -152 31
-327 0 -74 -2 -162 -6 -195 -4 -33 -9 -78 -12 -100 -2 -22 -6 -51 -8 -65 -3
-14 -7 -45 -11 -70 -4 -25 -9 -56 -11 -70 -3 -14 -6 -38 -9 -55 -2 -16 -6 -42
-9 -57 -3 -16 -9 -40 -12 -55 -3 -16 -7 -37 -9 -48 -3 -20 -9 -47 -20 -95 -3
-14 -7 -36 -10 -50 -5 -26 -7 -36 -24 -104 -5 -22 -8 -44 -5 -48 3 -4 0 -8 -6
-8 -7 0 -10 -6 -7 -12 2 -7 1 -20 -4 -29 -5 -9 -10 -31 -11 -48 -1 -17 -7 -31
-12 -31 -5 0 -6 -3 -3 -6 3 -4 2 -14 -2 -23 -5 -9 -11 -30 -14 -48 -3 -17 -8
-37 -12 -43 -3 -5 -8 -22 -11 -36 -3 -14 -16 -60 -30 -102 -14 -42 -26 -85
-27 -94 -1 -10 -5 -18 -10 -18 -5 0 -7 -7 -4 -15 4 -8 2 -17 -2 -19 -9 -6 -37
-96 -33 -108 1 -5 -2 -8 -6 -8 -8 0 -38 -89 -34 -102 1 -5 -3 -8 -9 -8 -6 0
-9 -7 -5 -15 3 -8 1 -15 -5 -15 -6 0 -8 -7 -5 -16 4 -10 2 -13 -6 -8 -7 5 -9
2 -5 -9 3 -9 1 -17 -4 -19 -5 -2 -11 -13 -12 -26 0 -12 -5 -22 -9 -22 -4 0 -7
-3 -6 -7 1 -5 -6 -26 -16 -48 -10 -22 -19 -45 -20 -51 -1 -7 -8 -19 -15 -28
-7 -8 -10 -19 -7 -25 3 -5 1 -11 -4 -13 -6 -2 -12 -11 -13 -20 -2 -9 -9 -23
-16 -32 -7 -9 -10 -16 -7 -16 4 0 -2 -13 -13 -29 -11 -15 -18 -31 -14 -35 3
-3 1 -6 -6 -6 -7 0 -10 -4 -6 -9 3 -5 -2 -17 -11 -25 -8 -9 -13 -16 -9 -16 3
0 -2 -11 -11 -25 -9 -14 -12 -25 -8 -25 5 0 4 -4 -1 -8 -18 -12 -48 -65 -34
-57 9 4 9 2 -1 -7 -16 -14 -34 -43 -58 -93 -8 -16 -21 -37 -28 -45 -7 -8 -14
-22 -16 -30 -2 -8 -11 -21 -20 -28 -10 -7 -15 -19 -11 -29 4 -10 2 -14 -5 -9
-6 4 -16 -8 -23 -28 -7 -19 -16 -33 -20 -30 -4 2 -11 -6 -15 -18 -4 -13 -16
-31 -27 -40 -11 -10 -16 -18 -12 -18 5 0 0 -7 -11 -15 -10 -8 -16 -15 -12 -15
7 0 -11 -25 -39 -55 -7 -8 -13 -16 -13 -19 0 -7 -26 -39 -58 -72 -12 -13 -22
-29 -22 -35 0 -7 -3 -9 -7 -6 -7 8 -39 -34 -35 -46 1 -5 -1 -6 -5 -4 -10 6
-34 -19 -26 -27 4 -3 1 -6 -6 -6 -6 0 -44 -32 -83 -71 -39 -39 -67 -65 -62
-58 6 12 5 12 -9 0 -9 -7 -14 -18 -10 -24 3 -5 2 -8 -3 -4 -13 7 -126 -78
-116 -88 4 -5 2 -5 -5 -2 -6 4 -18 1 -26 -7 -8 -8 -17 -12 -21 -9 -3 4 -6 1
-6 -5 0 -7 -7 -12 -15 -12 -9 0 -18 -7 -21 -15 -4 -8 -10 -12 -16 -9 -5 3 -17
0 -26 -8 -9 -8 -35 -23 -57 -33 -22 -11 -42 -23 -43 -28 -2 -4 -8 -5 -13 -2
-5 3 -19 0 -31 -7 -13 -7 -25 -13 -28 -14 -3 0 -14 -4 -25 -8 -11 -5 -27 -10
-35 -14 -8 -3 -21 -4 -27 -3 -7 1 -13 -3 -13 -9 0 -6 -4 -9 -8 -6 -5 3 -26 1
-47 -5 -55 -15 -74 -19 -135 -26 -67 -8 -262 -6 -310 3 -19 3 -44 7 -55 8 -11
0 -23 4 -26 8 -3 5 -17 9 -32 10 -15 1 -27 5 -27 9 0 7 -81 42 -93 40 -5 -1
-6 3 -2 9 3 5 2 10 -3 10 -16 0 -97 84 -100 104 -2 11 -9 29 -16 40 -26 44 -3
188 34 211 6 4 8 11 5 16 -4 5 1 9 9 9 9 0 16 3 16 8 0 4 23 31 50 61 27 29
47 57 44 62 -3 5 -1 9 5 9 25 0 47 200 22 208 -5 2 -7 10 -4 18 3 8 0 14 -7
14 -6 0 -8 5 -4 12 4 6 -1 17 -11 25 -11 7 -16 13 -12 13 4 0 -5 13 -19 30
-15 16 -30 27 -34 25 -5 -3 -10 2 -13 10 -12 30 -193 57 -224 32 -7 -5 -13 -6
-13 -2 0 4 -6 2 -13 -4 -8 -6 -17 -8 -20 -5 -13 14 -130 -83 -120 -99 3 -6 1
-7 -5 -3 -12 7 -35 -27 -25 -38 3 -3 2 -6 -4 -6 -11 0 -42 -57 -48 -90 -2 -11
-6 -24 -9 -29 -5 -7 -17 -109 -18 -146 -2 -91 36 -247 71 -289 13 -16 13 -18
1 -11 -11 6 -10 3 3 -12 9 -11 17 -25 17 -31 0 -6 8 -16 17 -21 10 -6 14 -11
10 -11 -4 0 1 -10 13 -22 11 -12 20 -27 20 -32 0 -6 19 -27 41 -46 22 -19 50
-44 62 -55 12 -11 31 -27 42 -35 17 -13 18 -13 10 0 -4 8 5 3 21 -12 16 -15
36 -28 44 -30 8 -2 21 -9 28 -16 8 -7 18 -10 23 -7 5 4 9 2 9 -3 0 -6 7 -13
16 -16 10 -4 13 -2 8 7 -4 6 2 3 14 -7 12 -11 25 -16 28 -13 4 3 18 0 33 -7
26 -14 57 -21 136 -33 55 -9 338 -8 400 0 28 4 70 9 94 13 25 3 53 10 63 15
10 5 18 7 18 4 0 -3 15 1 33 8 17 8 38 12 45 10 6 -3 12 0 12 7 0 6 5 8 10 5
6 -3 16 -3 23 2 6 4 17 8 22 10 6 1 20 4 33 7 12 3 28 8 35 13 6 4 14 8 17 8
20 3 58 20 74 34 15 13 18 13 11 1 -8 -13 -7 -13 9 0 10 8 25 15 34 16 8 2 19
9 23 16 5 7 9 10 9 6 0 -4 27 9 61 28 33 18 63 34 66 34 2 0 11 6 18 13 37 32
50 42 53 38 2 -1 16 7 30 20 15 13 31 24 35 24 5 0 17 11 28 25 12 14 18 18
14 10 -4 -8 2 -5 13 7 11 12 22 19 26 16 3 -4 6 2 6 12 0 10 3 15 7 12 3 -4
18 6 32 21 15 15 31 29 36 31 6 1 9 7 7 12 -1 5 4 8 10 7 7 -2 12 3 10 10 -1
8 2 11 7 8 5 -4 18 5 29 19 11 13 22 21 26 18 3 -3 6 -2 6 4 0 6 21 33 48 59
76 78 142 158 142 172 0 7 4 11 9 8 7 -5 24 20 22 31 0 2 11 15 24 29 14 15
25 33 25 41 0 8 4 11 10 8 6 -3 10 1 10 9 0 9 5 16 10 16 6 0 10 7 10 15 0 8
5 15 11 15 5 0 8 4 5 9 -4 5 -3 11 1 13 12 5 75 98 67 98 -4 0 1 7 12 15 10 8
15 15 11 15 -4 0 1 10 13 22 11 12 20 27 20 34 0 6 7 17 15 24 8 7 12 16 9 21
-3 5 0 9 6 9 6 0 8 5 5 10 -3 6 -2 10 2 10 5 0 17 14 27 31 13 22 14 29 5 24
-8 -5 -5 3 7 16 23 26 80 140 76 152 -1 4 3 7 9 7 5 0 7 5 4 10 -3 6 -1 10 4
10 6 0 11 6 11 13 0 7 9 29 19 49 11 19 17 39 14 42 -4 3 -2 6 3 6 10 0 34 56
33 74 0 5 4 12 11 16 6 4 12 17 13 28 1 12 4 22 8 22 7 0 23 50 21 63 -1 4 3
7 9 7 6 0 9 7 5 15 -3 8 -1 15 5 15 6 0 7 5 4 10 -3 6 -1 10 4 10 6 0 10 3 9
8 -1 4 4 21 11 37 7 17 14 35 15 40 1 6 5 16 9 23 5 6 6 16 3 21 -4 5 -1 11 4
13 6 2 12 10 13 18 2 8 6 21 10 28 5 6 6 12 2 12 -3 0 1 14 10 30 9 17 13 30
9 30 -4 0 -1 7 6 15 7 8 10 15 7 15 -4 0 2 20 13 45 11 25 20 49 20 53 0 4 6
25 12 47 6 22 12 45 14 50 1 6 9 30 18 54 9 24 13 47 10 52 -3 5 0 9 6 9 6 0
10 8 9 18 -1 9 3 30 10 45 6 16 9 32 6 37 -3 5 0 12 6 15 5 4 8 13 5 21 -3 8
-1 14 5 14 6 0 8 7 5 17 -4 9 -2 19 4 23 5 3 12 22 14 41 3 18 5 34 6 34 1 0
3 7 5 15 12 47 33 131 33 133 0 1 5 21 11 44 6 23 11 45 10 50 -1 4 0 10 1 13
2 6 7 26 14 58 3 13 7 31 10 40 3 9 7 35 11 56 3 21 7 48 10 60 3 12 7 33 10
49 3 15 8 39 11 55 3 15 7 41 10 57 2 17 6 44 9 60 3 17 8 41 10 55 2 14 6 36
9 50 5 25 14 91 21 145 2 17 4 30 6 30 1 0 3 16 4 35 2 19 4 35 5 35 1 0 3 11
5 25 5 42 17 154 18 170 2 23 49 18 58 -6 16 -42 22 -59 24 -69 1 -5 3 -12 4
-15 1 -3 4 -20 7 -39 2 -19 9 -39 14 -46 5 -7 7 -15 4 -18 -3 -3 -2 -12 2 -19
4 -7 9 -19 10 -28 3 -21 12 -55 14 -55 1 0 4 -16 7 -35 2 -19 10 -38 16 -42 7
-4 9 -8 5 -8 -5 0 5 -49 28 -135 3 -11 7 -31 10 -45 9 -39 10 -42 24 -90 17
-56 20 -70 24 -95 2 -11 4 -20 5 -20 2 0 4 -9 6 -20 2 -11 8 -36 14 -55 15
-54 24 -94 23 -102 -1 -5 2 -8 6 -8 4 0 8 -8 9 -17 2 -25 12 -68 23 -98 5 -14
7 -25 4 -25 -4 0 -1 -7 6 -15 7 -8 10 -15 7 -15 -3 0 1 -21 9 -47 8 -27 17
-59 20 -73 2 -14 7 -32 10 -40 3 -8 8 -26 10 -40 3 -14 7 -32 11 -40 3 -8 8
-26 10 -40 2 -14 8 -26 13 -28 5 -2 7 -9 4 -17 -3 -7 -1 -16 5 -19 6 -4 8 -13
4 -21 -3 -8 0 -15 7 -15 6 0 9 -4 6 -8 -3 -5 0 -26 6 -48 6 -21 11 -42 10 -46
-1 -5 3 -8 9 -8 5 0 7 -5 4 -10 -4 -6 -2 -16 3 -23 6 -7 11 -15 11 -20 1 -14
13 -62 18 -77 4 -8 5 -19 4 -24 -1 -4 4 -14 10 -22 6 -8 9 -14 5 -14 -3 0 -1
-12 5 -27 6 -16 13 -39 16 -53 2 -13 10 -28 16 -32 7 -4 9 -8 5 -8 -4 0 -2
-15 4 -32 5 -18 10 -39 11 -45 0 -7 4 -13 9 -13 5 0 6 -5 3 -10 -4 -6 -1 -17
5 -25 7 -8 9 -15 5 -15 -4 0 -2 -6 4 -13 6 -8 8 -17 4 -20 -3 -4 -1 -7 6 -7 7
0 10 -4 7 -8 -6 -11 25 -115 37 -123 5 -3 8 -9 7 -13 -4 -15 25 -106 34 -106
5 0 7 -3 3 -6 -5 -5 10 -59 30 -104 3 -8 5 -18 5 -22 -1 -5 2 -8 8 -8 5 0 7
-6 4 -14 -3 -8 -1 -17 5 -21 6 -3 11 -12 11 -20 0 -8 5 -26 12 -42 6 -15 12
-31 13 -35 2 -5 4 -11 5 -15 1 -5 2 -11 1 -15 0 -5 3 -8 9 -8 5 0 7 -6 4 -14
-3 -8 -1 -17 5 -21 6 -3 11 -14 11 -24 0 -10 7 -24 15 -31 8 -7 13 -16 10 -20
-3 -4 3 -25 12 -46 9 -22 16 -42 15 -46 -1 -5 3 -8 9 -8 5 0 8 -4 4 -9 -3 -5
-1 -12 5 -16 6 -4 8 -11 5 -16 -4 -5 -1 -9 5 -9 6 0 9 -4 5 -9 -3 -5 -1 -12 5
-16 5 -3 10 -15 10 -26 0 -10 5 -19 11 -19 5 0 8 -4 5 -8 -3 -5 3 -25 14 -44
10 -20 16 -39 13 -42 -4 -3 -1 -6 6 -6 7 0 9 -4 6 -10 -3 -6 -1 -10 5 -10 6 0
9 -4 5 -9 -3 -5 0 -15 7 -23 7 -7 13 -17 14 -23 1 -19 26 -75 33 -75 4 0 8 -6
8 -12 0 -7 13 -40 28 -73 16 -33 29 -62 30 -65 8 -26 26 -59 35 -65 5 -3 8
-10 5 -15 -3 -4 2 -13 10 -20 8 -7 12 -16 9 -21 -3 -5 0 -9 6 -9 6 0 9 -4 5
-9 -3 -5 1 -16 9 -24 8 -8 12 -17 9 -21 -4 -3 -1 -6 5 -6 7 0 11 -3 10 -7 -4
-14 38 -94 45 -87 4 4 7 1 7 -6 0 -21 33 -90 43 -90 4 0 5 -4 2 -10 -3 -5 -1
-10 4 -10 6 0 11 -7 11 -15 0 -9 7 -18 15 -21 8 -4 13 -10 10 -14 -3 -5 2 -15
10 -24 9 -8 16 -19 15 -23 0 -4 8 -17 17 -28 9 -11 16 -21 15 -22 -7 -9 0 -23
8 -18 6 3 10 -3 10 -15 0 -11 7 -23 15 -26 8 -4 13 -10 10 -14 -3 -5 1 -12 9
-17 8 -4 15 -12 15 -18 1 -11 151 -245 158 -245 2 0 1 5 -3 12 -4 7 -3 8 5 4
6 -4 9 -11 6 -16 -3 -5 3 -18 15 -30 11 -11 17 -20 13 -20 -5 -1 3 -10 17 -21
14 -12 25 -26 25 -33 1 -6 7 -10 14 -8 7 1 10 -2 7 -7 -4 -5 2 -14 11 -20 10
-6 15 -11 11 -11 -8 0 -2 -8 66 -82 24 -27 41 -48 39 -48 -3 0 9 -14 26 -32
17 -17 31 -36 31 -40 0 -5 5 -6 10 -3 6 3 10 0 10 -7 0 -16 36 -49 44 -41 3 4
6 1 6 -5 0 -16 66 -83 74 -75 3 4 6 1 6 -5 0 -6 18 -29 40 -51 22 -22 40 -38
40 -36 0 2 15 -11 33 -30 19 -19 37 -32 40 -28 4 3 7 1 7 -5 0 -6 42 -43 93
-82 50 -39 99 -77 107 -84 31 -24 44 -30 36 -15 -6 10 -4 10 6 -1 19 -22 84
-69 99 -72 8 -2 19 -10 26 -18 7 -8 13 -10 13 -5 0 6 3 6 8 -1 9 -13 82 -57
82 -49 0 3 10 -3 22 -14 11 -11 25 -18 30 -15 4 3 8 0 8 -7 0 -7 3 -10 6 -6 4
3 13 -1 21 -9 8 -8 19 -12 24 -9 5 4 9 1 9 -5 0 -6 5 -8 10 -5 6 3 10 1 10 -6
0 -7 3 -9 7 -6 3 4 13 1 22 -7 9 -8 18 -15 21 -15 3 0 19 -5 35 -12 17 -7 32
-13 35 -13 3 -1 10 -4 15 -8 11 -7 88 -35 200 -73 65 -22 173 -52 220 -61 11
-2 31 -7 45 -10 14 -3 34 -7 45 -9 11 -2 20 -4 20 -5 0 -2 9 -4 20 -6 29 -4
86 -14 120 -20 17 -3 44 -7 60 -9 217 -23 247 -25 400 -25 169 0 326 9 410 23
77 13 102 18 130 24 17 4 33 6 38 5 4 -1 7 2 7 8 0 5 7 7 15 4 8 -4 22 -1 30
6 8 7 15 10 15 7 0 -3 15 0 34 8 18 8 36 11 40 8 3 -4 6 -1 6 6 0 7 5 9 10 6
6 -3 10 -2 10 2 0 5 10 9 22 10 11 1 24 7 28 13 4 7 10 11 14 10 13 -4 66 22
66 32 0 5 5 6 10 3 6 -3 10 -1 10 5 0 6 5 8 10 5 6 -3 10 -3 10 2 0 4 13 14
30 21 39 17 170 145 170 166 0 9 4 16 10 16 5 0 9 3 8 8 -1 4 3 17 10 30 7 12
9 22 5 22 -4 0 -1 4 6 9 23 15 19 155 -6 193 -4 7 -8 18 -8 23 -1 6 -7 9 -14
7 -7 -1 -10 2 -7 7 7 11 -68 73 -78 64 -3 -3 -6 -1 -6 6 0 7 -6 11 -14 8 -8
-3 -16 -2 -18 3 -10 29 -212 26 -230 -4 -4 -6 -8 -7 -8 -2 0 5 -10 1 -22 -10
-14 -13 -19 -14 -14 -4 4 8 0 6 -8 -4 -9 -11 -16 -16 -16 -10 -1 5 -10 -2 -20
-15 -11 -13 -20 -20 -20 -17 0 3 -42 -36 -94 -86 -51 -51 -92 -96 -89 -100 2
-5 0 -8 -6 -8 -6 0 -35 -24 -65 -52 -84 -81 -120 -112 -128 -110 -5 1 -8 -3
-8 -9 0 -5 -4 -8 -9 -4 -5 3 -16 -4 -24 -15 -7 -11 -17 -17 -20 -13 -4 3 -7 1
-7 -6 0 -7 -4 -10 -9 -7 -4 3 -16 -3 -26 -14 -10 -11 -21 -17 -26 -15 -4 3
-15 -2 -23 -11 -9 -8 -16 -13 -16 -10 0 3 -24 -4 -52 -15 -57 -23 -158 -49
-158 -41 0 2 -6 0 -12 -5 -7 -5 -23 -8 -35 -7 -13 0 -23 -2 -23 -6 0 -7 -319
-4 -360 4 -14 2 -41 7 -60 11 -19 3 -50 10 -69 15 -19 5 -38 7 -43 4 -4 -3 -8
-1 -8 4 0 5 -6 9 -12 10 -15 1 -52 10 -55 12 -2 2 -6 3 -10 5 -5 1 -21 7 -36
13 -16 7 -32 12 -36 12 -4 0 -33 13 -64 29 -31 16 -58 27 -60 25 -2 -3 -10 2
-17 11 -7 8 -19 15 -26 15 -8 0 -14 5 -14 11 0 5 -4 7 -10 4 -5 -3 -10 -1 -10
5 0 6 -4 8 -10 5 -5 -3 -10 -1 -10 4 0 6 -5 11 -10 11 -12 0 -116 66 -144 92
-10 10 -24 14 -30 11 -6 -3 -8 -3 -4 1 8 9 -142 132 -155 128 -5 -1 -6 1 -3 6
6 10 -30 43 -38 35 -3 -4 -6 1 -6 9 0 9 -16 26 -35 39 -19 13 -35 27 -35 31 0
3 -27 34 -59 67 -33 34 -56 61 -53 61 3 0 0 6 -6 12 -7 7 -18 13 -25 13 -7 0
-12 5 -12 10 0 17 -42 65 -50 57 -3 -4 -6 -2 -4 3 4 17 -13 45 -27 45 -8 0
-13 4 -11 8 2 9 -34 61 -60 88 -7 7 -13 17 -13 23 0 6 -4 11 -10 11 -5 0 -10
6 -10 14 0 8 -4 16 -9 18 -4 1 -20 21 -34 43 -15 22 -39 58 -53 80 -15 22 -31
43 -36 46 -6 3 -9 8 -7 10 3 5 -52 92 -63 100 -5 3 -9 8 -8 10 4 10 -16 46
-35 62 -11 10 -13 15 -6 11 9 -5 6 5 -7 23 -12 17 -22 36 -22 42 0 5 -8 15
-17 20 -10 6 -14 11 -9 11 6 0 1 7 -10 16 -10 8 -13 12 -5 8 9 -5 6 7 -9 32
-13 21 -28 41 -32 42 -5 2 -6 8 -3 12 3 5 -3 18 -14 29 -11 11 -17 22 -14 25
4 3 -2 15 -12 26 -10 11 -14 20 -10 20 5 0 0 7 -11 15 -10 8 -15 15 -11 15 9
0 -18 53 -42 83 -8 9 -11 17 -7 17 4 0 -1 12 -12 28 -11 15 -20 31 -20 35 -1
14 -45 101 -60 119 -7 9 -12 21 -8 26 3 4 -4 23 -15 41 -11 18 -14 29 -7 25
10 -5 11 -4 1 7 -7 7 -13 23 -13 36 0 13 -4 23 -9 23 -6 0 -8 9 -6 20 2 11 0
20 -5 20 -4 0 -7 8 -5 18 1 9 0 21 -3 27 -3 5 -7 19 -9 30 -6 43 -12 82 -17
115 -19 112 -25 513 -11 655 5 44 9 95 9 113 1 17 3 32 6 32 3 0 6 12 6 28 1
24 5 56 18 142 11 74 17 108 22 130 4 14 7 34 9 45 1 11 5 27 8 35 3 8 8 29
11 45 3 17 8 41 11 55 4 14 8 32 9 40 1 9 5 20 9 26 3 6 8 26 11 45 2 19 12
54 20 78 9 24 13 47 10 52 -3 5 0 9 6 9 7 0 10 6 7 13 -2 6 4 31 14 55 10 23
17 42 14 42 -2 0 7 27 20 60 13 33 21 60 18 60 -3 0 0 6 6 14 6 8 11 18 10 22
-2 5 9 35 24 68 15 32 24 62 21 67 -3 5 0 9 5 9 6 0 11 6 11 13 0 6 7 25 15
41 8 15 12 32 9 37 -3 5 -1 9 5 9 10 0 37 68 33 83 -1 5 2 6 8 2 5 -3 11 -1
11 4 2 14 6 29 9 36 1 3 3 8 4 13 1 4 12 22 23 41 12 19 20 38 18 42 -3 4 2
13 11 20 13 10 42 67 44 84 0 3 16 28 36 56 20 28 30 48 22 44 -7 -3 -4 1 6 9
11 9 16 16 10 16 -5 0 -4 4 3 8 16 10 84 114 70 107 -7 -4 -5 -1 3 7 21 18 83
98 76 98 -3 0 13 18 35 40 22 22 38 40 35 40 -3 0 12 18 34 40 22 22 40 45 40
51 0 5 5 7 10 4 6 -3 14 4 19 17 6 13 10 20 10 17 1 -4 21 12 44 35 24 22 59
52 77 66 19 14 40 33 49 42 8 9 18 15 23 12 4 -3 11 2 14 10 3 9 12 16 20 16
7 0 18 8 23 18 6 9 11 13 11 9 0 -11 60 25 60 36 0 4 4 6 9 3 4 -3 33 6 62 21
30 14 60 26 67 26 6 0 12 5 12 10 0 6 3 8 6 4 4 -3 21 0 39 8 19 7 36 11 39 8
2 -3 11 -1 18 3 7 5 22 9 33 11 11 1 40 5 65 8 79 11 248 6 335 -10 17 -3 41
-7 55 -9 14 -3 27 -6 30 -7 3 -1 10 -3 15 -4 6 -2 13 -4 18 -5 4 -1 10 -3 15
-5 4 -1 14 -4 22 -8 23 -8 90 -29 103 -31 7 -1 17 -4 22 -7 6 -4 24 -10 40
-14 45 -12 45 -12 48 -15 1 -1 9 -3 17 -5 38 -10 56 -12 65 -7 5 3 16 7 25 8
54 7 95 17 98 25 2 5 8 6 13 3 6 -3 20 2 31 13 14 12 18 13 13 3 -5 -8 7 -3
27 12 19 15 38 24 42 21 3 -4 6 1 6 11 0 9 4 15 9 12 12 -8 83 72 76 84 -4 6
-2 10 3 10 5 0 9 8 10 18 4 33 3 97 -1 112 -3 8 -8 30 -12 48 -4 17 -12 32
-18 32 -6 0 -7 3 -4 6 15 15 -86 118 -124 126 -8 2 -17 6 -20 11 -3 4 -15 9
-27 12 -12 2 -27 7 -34 11 -6 4 -23 9 -37 11 -14 2 -39 6 -56 9 -78 14 -201
21 -245 14z"/>
<path d="M10908 8174 c-2 -2 -22 -6 -44 -10 -21 -3 -42 -10 -45 -16 -3 -5 -10
-9 -15 -9 -18 1 -44 -11 -44 -20 0 -6 -4 -7 -10 -4 -5 3 -10 2 -10 -4 0 -5 -9
-13 -20 -16 -29 -9 -89 -103 -105 -165 -15 -55 -11 -133 7 -178 6 -15 12 -30
12 -34 1 -4 9 -16 18 -27 9 -11 14 -22 11 -25 -3 -3 4 -16 15 -30 10 -14 22
-22 26 -19 3 3 6 -1 6 -10 0 -9 9 -22 20 -29 11 -7 20 -18 20 -25 0 -7 6 -13
13 -13 6 0 23 -16 37 -34 14 -19 27 -33 30 -31 3 2 11 -3 18 -11 7 -8 9 -14 5
-14 -4 0 7 -13 25 -29 17 -16 32 -34 32 -40 0 -7 4 -10 9 -6 5 3 12 -3 15 -12
3 -10 26 -40 50 -66 25 -26 45 -49 44 -50 -1 -5 44 -77 49 -77 2 0 1 6 -3 13
-4 7 -3 9 2 4 5 -5 9 -12 9 -15 1 -17 37 -72 46 -72 6 0 7 -5 4 -10 -3 -6 1
-13 9 -16 9 -3 13 -10 11 -15 -3 -4 3 -17 14 -28 11 -11 16 -22 13 -26 -4 -4
2 -13 12 -21 11 -8 16 -14 12 -14 -4 0 2 -13 13 -29 11 -15 18 -31 14 -35 -3
-3 -1 -6 5 -6 7 0 12 -7 12 -15 0 -8 4 -15 8 -15 4 0 9 -10 9 -22 1 -13 7 -24
13 -26 5 -2 8 -8 4 -13 -3 -5 0 -9 6 -9 6 0 8 -4 5 -10 -3 -5 -1 -10 5 -10 6
0 8 -5 4 -11 -3 -6 -1 -15 5 -19 7 -4 13 -13 14 -21 2 -8 8 -27 14 -44 16 -42
21 -59 19 -66 0 -3 5 -13 13 -22 7 -10 11 -17 7 -17 -4 0 0 -13 9 -30 9 -16
13 -30 9 -30 -4 0 -1 -6 5 -13 6 -8 8 -16 5 -19 -3 -4 2 -20 11 -37 8 -17 14
-31 11 -31 -2 0 0 -17 6 -37 6 -21 12 -47 13 -58 2 -11 6 -31 9 -45 23 -102
37 -258 38 -420 0 -142 -7 -224 -28 -350 -3 -19 -7 -46 -9 -60 -2 -14 -4 -25
-5 -25 -3 0 -8 -24 -13 -60 -2 -11 -6 -25 -9 -31 -4 -6 -10 -24 -13 -40 -10
-47 -10 -48 -18 -61 -5 -7 -5 -17 -2 -23 3 -5 1 -10 -4 -10 -6 0 -11 -6 -11
-14 0 -8 -5 -27 -12 -43 -6 -15 -12 -30 -13 -33 -1 -3 -7 -18 -14 -35 -15 -39
-19 -49 -18 -55 0 -3 -12 -25 -27 -49 -15 -24 -22 -40 -14 -35 7 4 1 -7 -15
-25 -15 -18 -25 -36 -22 -41 3 -4 -2 -10 -10 -14 -8 -3 -15 -15 -15 -26 0 -12
-4 -18 -10 -15 -5 3 -10 1 -10 -5 0 -7 -9 -23 -20 -37 -11 -14 -17 -29 -14
-34 3 -5 -2 -9 -11 -9 -11 0 -15 -5 -11 -16 3 -8 2 -12 -4 -9 -6 3 -10 2 -10
-3 0 -6 -16 -27 -35 -48 -19 -22 -35 -45 -35 -52 0 -7 -4 -11 -9 -8 -5 3 -15
-2 -22 -11 -12 -14 -12 -16 1 -8 8 4 -2 -7 -22 -26 -21 -19 -54 -52 -75 -74
-20 -22 -33 -33 -28 -25 8 13 6 13 -8 1 -9 -7 -14 -18 -10 -25 3 -6 3 -8 -1
-4 -4 3 -28 -9 -53 -28 -24 -19 -49 -34 -54 -34 -6 0 -7 -4 -4 -10 3 -5 -1
-10 -9 -10 -8 0 -20 -8 -25 -17 -6 -10 -11 -14 -11 -9 0 4 -12 0 -27 -10 -47
-31 -134 -74 -149 -74 -8 0 -14 -5 -14 -12 0 -6 -3 -9 -6 -5 -3 3 -32 -5 -63
-19 -31 -14 -57 -25 -58 -25 -2 1 -4 1 -5 0 -7 -2 -35 -8 -58 -13 -14 -3 -36
-9 -50 -12 -14 -3 -36 -7 -50 -9 -14 -1 -25 -3 -25 -4 0 -6 -113 -12 -200 -12
-100 0 -250 13 -250 21 0 2 -9 4 -20 6 -25 4 -59 12 -62 14 -2 2 -6 3 -10 4
-22 5 -88 30 -111 42 -14 7 -29 11 -34 8 -4 -3 -8 -1 -8 5 0 6 -13 17 -30 26
-16 9 -30 13 -30 10 0 -3 -10 3 -22 14 -11 11 -25 18 -30 15 -4 -3 -8 0 -8 6
0 6 -11 15 -25 22 -13 6 -22 15 -19 19 5 8 -10 13 -29 10 -5 -1 -6 2 -3 7 5 8
-29 43 -36 37 -1 -1 -12 7 -23 18 -11 11 -14 16 -6 12 9 -5 12 -4 7 3 -4 7
-14 12 -23 12 -9 0 -14 3 -10 6 5 6 -6 23 -50 72 -13 14 -23 31 -23 39 0 8 -4
11 -10 8 -5 -3 -10 2 -10 13 0 11 -9 31 -20 45 -11 14 -20 29 -20 33 0 4 -8
16 -17 27 -10 11 -13 17 -6 14 6 -4 1 14 -11 40 -19 40 -35 85 -37 108 0 2 -5
19 -11 37 -5 18 -11 44 -13 58 -2 14 -7 48 -11 75 -16 119 -4 361 22 447 3 9
7 26 9 37 3 12 7 30 9 40 3 11 10 29 16 40 6 12 8 21 4 21 -3 0 -1 7 6 15 6 8
9 19 5 25 -3 5 -1 10 4 10 6 0 10 3 9 8 -1 4 3 17 10 28 6 12 8 24 5 28 -3 3
-1 6 6 6 7 0 10 4 6 9 -3 5 2 16 11 25 8 9 12 20 9 26 -3 5 -2 10 2 10 5 0 14
9 21 21 11 17 11 20 0 14 -7 -3 -5 0 5 8 9 8 17 19 17 26 0 6 5 11 11 11 5 0
8 4 5 8 -3 5 4 18 14 30 11 12 20 24 20 28 0 4 12 23 27 43 16 20 27 39 25 44
-1 4 3 7 8 7 6 0 15 11 22 25 6 13 15 22 19 19 8 -5 13 10 10 29 -1 5 3 6 8 3
5 -4 20 8 32 26 28 39 209 218 221 218 4 0 8 7 8 16 0 8 4 13 8 10 4 -2 26 13
49 34 23 21 44 36 47 33 3 -3 8 2 12 11 3 9 12 16 20 16 7 0 19 9 27 20 8 11
17 17 20 14 4 -4 9 1 13 10 3 9 12 16 19 16 7 0 20 10 29 23 9 12 14 15 10 7
-4 -8 4 -5 18 8 13 12 29 22 34 22 5 0 24 13 41 29 18 16 34 26 37 23 3 -3 6
0 6 7 0 7 5 9 10 6 6 -3 10 -1 10 5 0 6 4 9 9 5 5 -3 16 3 23 12 7 10 19 19
27 21 8 2 21 11 29 20 9 12 12 13 7 2 -4 -8 1 -6 10 5 9 11 19 19 23 19 13 -2
52 19 52 28 0 5 5 6 10 3 6 -3 10 -1 10 4 0 6 6 11 13 11 7 0 27 13 45 29 17
17 32 28 32 25 0 -3 7 1 15 10 8 8 15 20 15 27 0 7 3 9 7 6 3 -4 18 10 33 31
29 38 63 112 53 112 -3 0 -1 6 4 13 13 16 7 98 -7 107 -7 4 -12 11 -12 16 0
16 -31 63 -39 59 -4 -3 -10 2 -13 11 -3 8 -10 13 -15 10 -5 -4 -11 -2 -13 4
-2 6 -14 13 -28 16 -38 9 -150 12 -150 4 0 -4 -11 -5 -25 -2 -14 2 -25 0 -25
-5 0 -12 -4 -13 -115 -16 -52 -2 -108 2 -134 10 -24 7 -47 10 -52 7 -5 -3 -9
0 -9 5 0 6 -3 10 -7 9 -5 -1 -21 4 -38 11 -42 16 -49 19 -55 17 -3 0 -18 9
-34 21 -16 13 -32 20 -37 17 -5 -3 -9 -1 -9 5 0 5 -17 20 -37 32 -21 12 -56
36 -78 53 -21 17 -35 24 -30 16 5 -8 -6 0 -23 18 -20 21 -36 31 -44 26 -7 -4
-10 -4 -6 1 9 9 -61 67 -72 60 -5 -3 -10 -1 -12 4 -4 12 -96 81 -107 81 -5 0
-11 4 -13 9 -1 5 -9 11 -17 13 -8 2 -22 9 -32 17 -27 22 -159 92 -159 85 0 -4
-9 1 -20 11 -11 10 -20 15 -20 12 0 -3 -12 0 -27 8 -15 8 -30 12 -35 9 -4 -3
-8 0 -8 6 0 7 -7 10 -15 6 -8 -3 -15 0 -15 6 0 6 -3 8 -6 5 -4 -3 -14 -2 -23
2 -21 12 -82 24 -191 38 -25 3 -85 5 -135 5 -106 1 -171 -6 -265 -27 -14 -4
-34 -7 -45 -9 -11 -1 -31 -9 -45 -16 -14 -7 -26 -13 -28 -12 -7 6 -52 -11 -52
-19 0 -5 -3 -8 -7 -7 -14 4 -83 -23 -83 -33 0 -5 -9 -9 -19 -9 -10 0 -22 -7
-25 -16 -3 -8 -10 -13 -15 -10 -5 3 -20 -5 -34 -18 -14 -13 -28 -21 -31 -18
-3 3 -6 0 -6 -6 0 -7 -4 -12 -10 -12 -14 0 -90 -77 -90 -91 0 -7 -3 -10 -6 -6
-12 11 -117 -130 -108 -145 3 -4 1 -8 -4 -8 -8 0 -23 -35 -21 -49 0 -2 -4 -7
-9 -10 -10 -6 -41 -94 -49 -139 -4 -26 -7 -195 -3 -254 1 -15 5 -30 10 -33 4
-3 6 -14 3 -25 -3 -11 -1 -20 4 -20 5 0 10 -11 11 -25 1 -14 9 -39 17 -55 9
-16 16 -33 17 -37 5 -28 12 -43 19 -43 5 0 8 -3 7 -7 -3 -11 25 -73 33 -73 4
0 9 -10 13 -23 10 -42 155 -177 223 -208 52 -24 125 -42 168 -42 38 0 111 16
117 26 4 7 8 8 8 2 0 -5 6 -3 13 5 7 8 18 16 25 18 19 4 72 44 72 55 0 4 12
24 26 42 14 19 23 38 20 44 -3 5 -1 11 5 13 28 9 15 218 -13 218 -5 0 -7 4 -3
9 3 6 -3 14 -12 20 -10 6 -14 11 -10 11 5 0 2 6 -5 13 -64 57 -80 70 -74 57 4
-8 0 -6 -8 4 -9 11 -16 16 -16 11 0 -5 -12 2 -27 16 -14 13 -22 17 -18 9 5
-10 1 -8 -13 4 -12 11 -22 16 -22 12 0 -4 -15 2 -33 13 -19 11 -37 18 -40 14
-4 -3 -7 -1 -7 6 0 8 -7 11 -15 7 -8 -3 -15 -1 -15 4 0 9 -39 26 -52 22 -5 -1
-8 3 -8 9 0 5 -4 7 -10 4 -5 -3 -10 -1 -10 4 0 6 -3 10 -7 9 -5 -1 -18 3 -30
10 -13 7 -23 10 -23 7 0 -5 -28 17 -55 42 -7 7 -15 9 -19 6 -3 -3 -8 2 -12 11
-3 9 -11 13 -17 9 -5 -3 -7 -1 -3 5 3 5 -6 20 -21 32 -16 12 -21 18 -14 14 9
-4 6 6 -8 24 -12 18 -19 32 -15 32 3 0 2 6 -3 13 -12 17 -8 114 6 130 6 8 9
16 6 19 -3 3 15 26 39 51 24 25 41 49 37 53 -3 4 -1 4 5 1 6 -3 21 3 32 14 12
11 22 17 22 14 0 -3 15 2 33 12 17 9 39 18 47 19 8 1 29 5 45 9 37 9 166 13
180 5 6 -2 19 -6 30 -7 38 -4 89 -13 123 -23 19 -5 39 -7 44 -4 4 3 8 1 8 -4
0 -5 6 -9 13 -10 38 -5 54 -9 72 -19 11 -6 29 -13 40 -14 11 -2 26 -10 33 -17
8 -7 18 -10 23 -7 5 4 9 2 9 -3 0 -5 6 -9 13 -9 6 0 36 -14 65 -32 29 -17 56
-31 59 -31 4 0 14 -6 22 -14 9 -8 23 -16 31 -18 8 -2 20 -9 25 -16 6 -7 18
-14 26 -15 9 -2 24 -11 33 -20 10 -9 22 -15 27 -12 5 4 9 -1 9 -10 0 -9 5 -13
10 -10 6 3 10 1 10 -6 0 -7 3 -10 6 -6 3 3 18 -5 33 -19 14 -13 34 -27 44 -30
9 -3 17 -10 17 -15 0 -6 5 -7 10 -4 6 3 10 3 10 -2 0 -4 17 -19 38 -32 20 -14
46 -33 57 -42 11 -10 26 -19 34 -21 7 -2 25 -13 39 -26 14 -12 27 -20 30 -17
3 3 13 -2 22 -10 24 -22 148 -84 154 -78 3 4 6 1 6 -5 0 -7 3 -11 8 -10 4 1
17 -3 30 -10 12 -7 27 -10 32 -7 6 3 10 1 10 -6 0 -7 3 -9 7 -6 3 4 11 3 17
-2 6 -5 27 -12 46 -15 19 -4 51 -9 70 -13 66 -11 259 -7 285 6 11 6 14 7 59
16 16 3 37 10 46 15 19 10 36 1 34 -20 -1 -8 -2 -21 -3 -29 0 -8 -4 -12 -7 -8
-7 7 -87 -35 -118 -61 -11 -10 -16 -11 -12 -5 5 9 2 11 -8 7 -9 -3 -16 -10
-16 -15 0 -5 -7 -9 -15 -9 -8 0 -15 -5 -15 -11 0 -5 -4 -8 -9 -4 -5 3 -16 -1
-24 -9 -8 -8 -17 -12 -21 -9 -3 4 -6 1 -6 -6 0 -7 -4 -10 -9 -6 -5 3 -12 1
-16 -5 -3 -5 -31 -22 -61 -36 -30 -14 -54 -30 -54 -35 0 -6 -4 -8 -9 -5 -5 3
-14 -1 -21 -9 -7 -8 -18 -15 -25 -15 -7 0 -16 -7 -19 -16 -3 -8 -10 -13 -14
-10 -5 3 -19 -4 -30 -15 -12 -11 -22 -17 -22 -13 0 4 -8 -2 -17 -12 -10 -10
-24 -20 -31 -22 -19 -4 -72 -44 -72 -54 0 -5 -4 -6 -10 -3 -5 3 -10 1 -10 -5
0 -6 -4 -8 -10 -5 -5 3 -10 2 -10 -2 0 -5 -18 -19 -41 -33 -22 -14 -45 -33
-50 -43 -6 -10 -14 -15 -20 -12 -5 4 -9 3 -9 -2 0 -4 -16 -19 -35 -32 -19 -13
-44 -32 -56 -42 -12 -11 -26 -19 -31 -19 -5 0 -6 -4 -3 -10 3 -5 -1 -10 -9
-10 -9 0 -16 -7 -16 -16 0 -8 -4 -13 -9 -9 -5 3 -18 -6 -29 -20 -11 -13 -22
-21 -26 -18 -3 3 -6 -1 -6 -10 0 -10 -4 -16 -8 -15 -5 2 -51 -40 -103 -93
-101 -103 -161 -169 -154 -169 3 0 -3 -8 -12 -18 -10 -10 -27 -31 -38 -46 -11
-16 -25 -34 -32 -41 -7 -7 -9 -15 -6 -19 3 -3 -2 -8 -11 -12 -9 -3 -16 -12
-16 -20 0 -8 -5 -14 -12 -14 -6 0 -8 -3 -5 -7 4 -3 0 -15 -10 -25 -9 -10 -13
-18 -10 -18 4 0 -2 -9 -13 -20 -12 -12 -18 -25 -15 -30 3 -4 2 -10 -3 -12 -4
-1 -18 -20 -30 -41 -12 -21 -16 -35 -10 -31 7 4 6 -1 -3 -12 -18 -21 -45 -85
-41 -96 1 -5 -2 -8 -6 -8 -5 0 -9 -6 -10 -12 -1 -25 -11 -57 -23 -80 -7 -13
-12 -24 -11 -25 1 -2 2 -4 1 -5 -1 -5 -9 -47 -12 -65 -1 -10 -5 -22 -8 -28
-14 -25 -18 -338 -6 -420 16 -113 53 -259 67 -263 6 -2 7 -8 4 -13 -3 -6 0
-16 6 -24 7 -8 9 -15 5 -15 -4 0 -1 -7 6 -16 8 -9 14 -22 14 -28 2 -22 36 -86
46 -86 5 0 8 -4 4 -10 -3 -5 9 -31 28 -57 19 -27 36 -53 38 -60 5 -15 55 -77
92 -114 15 -16 27 -34 27 -40 0 -7 3 -10 6 -7 3 3 24 -14 47 -38 23 -24 47
-44 52 -44 6 0 19 -11 29 -25 10 -13 22 -22 27 -19 5 3 9 1 9 -3 0 -14 104
-78 120 -74 8 1 12 0 8 -5 -7 -7 71 -52 102 -59 8 -2 17 -4 20 -5 3 -1 8 -2
13 -1 4 0 7 -4 7 -11 0 -6 3 -8 7 -5 3 4 11 3 17 -2 18 -14 103 -39 156 -46
14 -2 36 -7 50 -11 92 -24 351 -24 513 1 49 8 151 29 167 35 3 1 13 2 23 1 9
-1 17 2 17 6 0 5 8 9 18 10 42 5 82 16 82 24 0 5 7 6 15 3 8 -4 15 -1 15 5 0
6 3 10 8 10 4 -1 10 0 15 1 4 1 10 3 15 5 51 14 62 18 62 26 0 5 3 8 8 8 21
-4 42 3 56 17 9 8 16 12 16 8 0 -3 7 0 16 7 9 7 23 14 32 16 9 1 18 7 20 13 2
5 7 8 12 5 5 -3 16 2 25 11 9 9 31 25 48 34 66 35 84 46 140 88 31 23 57 47
57 52 0 6 3 9 8 7 8 -2 14 2 72 53 19 16 39 30 44 30 5 0 6 3 3 7 -4 3 5 15
20 25 16 10 24 18 19 18 -5 0 8 14 29 30 21 17 34 30 29 30 -5 0 2 7 14 16 12
8 20 19 17 24 -3 5 4 11 15 15 11 3 20 10 20 14 0 5 12 21 28 36 15 16 20 24
12 20 -8 -5 2 8 23 28 21 21 35 42 31 48 -3 5 0 8 7 7 7 -2 13 2 14 7 0 6 14
29 32 51 17 22 33 46 35 54 2 7 11 22 21 32 9 10 17 25 17 33 0 8 4 15 8 15
11 0 43 56 35 64 -3 3 -1 6 6 6 7 0 10 4 7 9 -3 5 1 12 10 15 8 3 12 10 9 16
-3 5 -1 10 4 10 6 0 10 3 9 8 -2 11 13 44 36 76 11 16 14 26 7 21 -8 -4 -4 6
8 22 12 16 23 36 25 44 1 8 7 23 13 34 6 11 11 23 12 28 0 4 8 21 16 37 9 17
13 30 9 30 -4 0 -1 7 6 15 7 8 9 15 5 15 -4 0 -3 6 2 13 9 10 36 81 38 97 0 3
3 10 6 15 4 6 10 26 15 45 11 50 11 50 14 53 2 3 11 38 14 57 1 9 6 21 10 28
4 7 5 16 2 19 -3 3 -1 13 4 23 5 9 12 30 15 46 2 16 7 40 11 54 3 14 7 34 9
45 2 11 4 20 5 20 1 0 3 14 6 30 4 28 6 42 19 125 28 177 39 592 22 770 -10
101 -22 200 -32 255 -3 17 -6 37 -6 45 -1 8 -6 33 -11 55 -6 22 -12 49 -14 60
-3 21 -11 57 -14 65 -1 3 -2 9 -1 14 1 5 -1 16 -5 25 -4 9 -9 25 -11 36 -8 37
-11 50 -13 53 -2 1 -4 7 -5 12 -1 6 -3 11 -5 13 -2 2 -7 21 -14 57 -3 14 -15
50 -27 80 -11 30 -22 60 -23 65 -6 21 -18 51 -27 67 -5 10 -9 22 -9 27 0 5 -8
26 -17 47 -9 22 -16 42 -15 47 1 4 -3 7 -9 7 -5 0 -8 4 -4 9 3 5 0 15 -7 23
-7 7 -14 20 -16 28 -2 8 -8 18 -14 21 -5 3 -9 9 -8 13 4 12 -22 66 -31 66 -5
0 -8 3 -7 8 4 11 -26 72 -35 72 -5 0 -5 5 -2 10 3 6 2 10 -3 10 -5 0 -15 13
-22 29 -6 16 -26 44 -43 62 -18 18 -25 29 -17 24 13 -8 13 -6 1 8 -7 9 -17 14
-22 11 -5 -3 -9 0 -9 6 0 14 -51 59 -67 60 -7 0 -13 4 -13 8 0 6 -24 19 -70
37 -35 13 -144 27 -152 19z"/>
<path d="M6917 6324 c-2 -2 -34 -6 -72 -8 -39 -3 -81 -8 -95 -11 -14 -3 -38
-8 -55 -10 -16 -3 -39 -9 -50 -12 -19 -6 -43 -11 -72 -15 -7 -1 -13 -4 -13 -7
0 -4 -11 -8 -24 -9 -13 -1 -44 -10 -69 -21 -25 -11 -48 -17 -51 -14 -3 4 -6 1
-6 -6 0 -7 -4 -9 -10 -6 -5 3 -10 1 -10 -4 0 -6 -4 -10 -8 -8 -13 3 -122 -46
-122 -56 0 -4 -4 -6 -9 -2 -5 3 -16 -1 -24 -9 -8 -8 -17 -12 -21 -9 -3 4 -6 0
-6 -7 0 -7 -3 -11 -6 -7 -9 8 -154 -91 -154 -105 0 -6 -3 -8 -6 -5 -10 9 -85
-53 -78 -64 3 -5 0 -8 -8 -7 -7 2 -12 -3 -11 -9 2 -7 0 -12 -5 -11 -11 4 -72
-54 -72 -69 0 -8 -4 -12 -9 -9 -8 5 -17 -7 -19 -27 -1 -4 -14 -19 -29 -33 -16
-14 -21 -22 -13 -18 8 4 5 -3 -8 -15 -12 -12 -20 -26 -17 -31 3 -4 -2 -11 -11
-14 -9 -4 -14 -9 -11 -12 3 -3 -3 -14 -14 -25 -11 -11 -17 -24 -14 -29 4 -6 1
-10 -5 -10 -6 0 -9 -4 -6 -9 4 -5 1 -11 -5 -13 -7 -2 -13 -13 -14 -24 -1 -10
-6 -28 -13 -40 -19 -35 -41 -107 -36 -116 3 -4 1 -8 -4 -8 -9 0 -11 -8 -14
-60 -1 -16 -4 -30 -8 -30 -14 0 -20 -330 -7 -405 4 -22 9 -53 11 -70 7 -46 16
-88 23 -110 4 -11 8 -23 9 -27 1 -5 3 -10 4 -13 3 -6 3 -6 14 -55 5 -19 12
-39 16 -45 5 -5 9 -13 9 -17 1 -5 1 -9 2 -10 0 -2 2 -12 4 -22 2 -10 9 -22 15
-26 7 -4 11 -10 11 -14 -2 -18 13 -66 20 -66 5 0 9 -5 9 -12 0 -6 8 -20 18
-31 12 -15 13 -19 2 -13 -9 5 -8 2 2 -7 10 -8 15 -17 11 -20 -3 -4 0 -15 8
-24 8 -10 24 -35 34 -56 11 -22 29 -45 40 -53 11 -8 16 -14 11 -14 -7 0 39
-63 74 -101 8 -9 22 -25 31 -35 36 -42 137 -134 148 -134 6 0 11 -4 11 -10 0
-5 15 -17 33 -26 17 -9 34 -20 37 -24 8 -11 100 -60 100 -53 0 3 8 -1 18 -9
18 -17 92 -50 92 -42 0 2 11 -3 25 -12 14 -9 25 -13 25 -9 0 4 6 3 13 -2 6 -6
20 -9 30 -8 9 2 17 -1 17 -7 0 -6 7 -8 15 -5 8 4 17 2 21 -4 3 -6 12 -8 19 -5
7 2 16 2 19 -2 10 -10 57 -16 196 -28 93 -8 205 -4 300 11 25 4 53 8 63 8 9 1
17 4 17 8 0 3 11 5 25 4 14 -2 27 1 30 5 3 5 12 7 20 3 8 -3 15 -1 15 4 0 5 8
9 18 10 9 1 31 7 47 13 17 6 31 11 33 11 1 -1 16 6 32 14 17 9 30 12 30 9 0
-4 9 1 20 11 11 10 20 15 20 11 0 -4 12 1 28 12 15 11 32 21 37 22 23 5 81 36
95 50 3 3 17 11 32 19 15 8 24 19 21 25 -3 6 -3 8 2 4 15 -14 175 115 175 142
0 5 3 9 8 8 12 -4 83 78 74 86 -4 4 0 6 8 4 8 -2 14 3 12 10 -1 6 2 12 7 12 4
0 29 32 54 70 25 39 40 68 34 64 -7 -3 -3 2 7 10 11 9 17 16 13 16 -4 0 0 11
9 25 9 14 13 25 9 25 -3 0 1 7 9 16 14 13 18 28 15 50 0 4 4 10 10 14 11 6 22
39 24 73 1 9 5 17 10 17 4 0 6 4 2 9 -3 5 0 13 6 16 5 4 8 13 5 21 -3 7 -1 16
4 19 4 3 7 16 5 30 -1 14 1 25 4 25 4 0 8 10 8 23 1 12 4 47 7 77 13 124 5
299 -19 410 -19 90 -23 105 -25 105 -1 0 -4 14 -6 30 -3 17 -9 32 -15 33 -5 2
-7 8 -3 13 3 5 2 15 -3 22 -4 6 -9 21 -10 32 -2 10 -8 22 -14 25 -5 4 -9 11
-8 16 4 18 -42 124 -55 124 -5 0 -6 3 -3 7 4 3 -1 15 -10 26 -13 15 -14 18 -3
12 11 -7 10 -1 -4 20 -11 16 -29 47 -40 68 -11 20 -28 46 -38 57 -10 10 -18
24 -18 30 0 5 -4 10 -10 10 -5 0 -10 6 -10 13 0 8 -26 42 -58 76 -32 34 -56
63 -54 66 2 2 -7 9 -20 16 -12 7 -29 20 -36 31 -7 10 -20 18 -28 18 -8 0 -12
5 -9 10 3 6 2 10 -4 10 -5 0 -16 6 -23 13 -23 23 -108 78 -108 71 0 -4 -7 1
-16 12 -8 10 -13 12 -9 4 4 -8 -1 -6 -9 4 -9 11 -16 16 -16 10 0 -5 -4 -4 -8
3 -4 6 -16 13 -27 15 -11 1 -23 7 -26 11 -3 5 -12 9 -20 10 -8 2 -18 5 -24 8
-11 7 -74 28 -90 31 -5 0 -24 7 -41 14 -17 7 -34 11 -37 8 -3 -3 -14 -1 -24 4
-26 14 -295 37 -306 26z m38 -128 c17 -2 31 -5 33 -6 1 -1 5 -3 10 -5 4 -1 15
-5 24 -9 9 -4 22 -8 30 -10 7 -1 32 -11 55 -23 22 -12 44 -19 49 -15 4 4 4 2
1 -4 -4 -7 7 -18 27 -28 18 -8 39 -22 46 -31 7 -8 17 -12 23 -8 6 3 7 1 3 -5
-4 -6 4 -17 18 -24 14 -7 25 -17 25 -21 0 -13 69 -76 76 -69 4 4 5 3 3 -3 -3
-10 23 -52 55 -86 9 -10 17 -23 17 -27 0 -5 9 -19 20 -32 11 -13 20 -29 20
-37 0 -8 5 -11 10 -8 6 3 10 0 10 -8 0 -23 26 -68 34 -59 4 4 6 2 4 -4 -5 -15
24 -84 36 -84 5 0 6 -3 3 -6 -3 -4 -1 -16 5 -28 7 -11 11 -24 10 -28 -1 -5 3
-8 9 -8 5 0 7 -4 4 -10 -3 -5 -2 -10 4 -10 6 0 8 -7 5 -15 -4 -8 -1 -15 5 -15
6 0 10 -3 9 -7 -3 -14 25 -93 33 -93 5 0 6 -6 3 -14 -3 -8 0 -17 5 -21 6 -3 9
-10 6 -15 -3 -5 -1 -11 4 -15 6 -3 7 -13 4 -22 -5 -12 -3 -14 7 -8 8 5 11 4 7
-2 -3 -5 -2 -27 4 -48 12 -43 19 -72 23 -100 2 -11 7 -40 11 -65 10 -64 14
-95 20 -175 10 -116 4 -313 -10 -334 -4 -7 -5 -15 -2 -17 3 -3 -3 -36 -13 -75
-10 -38 -16 -69 -13 -69 3 0 0 -6 -6 -13 -6 -8 -12 -22 -14 -33 -2 -10 -9 -32
-16 -49 -7 -16 -11 -30 -9 -31 2 0 -5 -8 -15 -18 -9 -10 -15 -22 -12 -27 4 -5
2 -9 -4 -9 -5 0 -12 -8 -16 -19 -3 -10 -16 -31 -30 -47 -13 -15 -22 -31 -19
-35 2 -4 -1 -11 -7 -15 -8 -5 -9 -3 -4 6 5 9 4 11 -3 6 -7 -4 -12 -14 -12 -23
0 -9 -2 -14 -6 -11 -3 3 -25 -14 -50 -38 -25 -24 -54 -46 -65 -49 -10 -4 -19
-11 -19 -16 0 -6 -4 -8 -9 -5 -5 3 -20 -4 -35 -15 -14 -11 -26 -18 -26 -14 0
3 -13 -1 -30 -10 -16 -9 -30 -13 -30 -10 0 3 -13 -1 -29 -9 -16 -9 -31 -13
-33 -10 -3 2 -18 0 -34 -7 -63 -24 -230 -31 -303 -13 -25 7 -49 10 -53 8 -3
-2 -8 1 -10 6 -2 6 -13 12 -26 13 -12 0 -22 5 -22 10 0 4 -4 5 -10 2 -5 -3
-10 -1 -10 5 0 7 -7 10 -15 6 -8 -3 -15 -2 -15 3 0 4 -16 16 -35 27 -19 10
-35 22 -35 27 0 4 -4 6 -9 2 -5 -3 -19 7 -30 21 -12 15 -21 23 -21 18 0 -5 -5
-1 -11 9 -5 9 -17 17 -25 17 -8 0 -13 4 -10 9 3 5 -10 23 -29 40 -20 17 -32
31 -28 31 4 0 -2 8 -13 19 -22 21 -59 66 -55 66 1 0 -1 8 -4 17 -4 10 -12 15
-19 11 -6 -3 -8 -3 -4 1 4 5 -2 23 -13 42 -10 19 -28 50 -39 69 -11 19 -17 35
-13 35 3 0 -2 9 -12 20 -10 11 -15 20 -11 20 4 0 -2 16 -14 35 -12 19 -18 35
-14 35 4 0 -1 8 -10 19 -9 10 -16 22 -14 27 1 5 -4 25 -11 44 -8 19 -13 39
-12 43 1 4 -4 18 -11 30 -7 12 -11 26 -10 31 2 4 -2 14 -8 20 -5 7 -7 16 -4
19 3 3 2 12 -2 19 -4 7 -9 19 -10 28 -1 8 -5 25 -8 38 -3 12 -8 30 -10 40 -3
9 -12 44 -21 77 -9 33 -18 69 -20 80 -2 11 -6 31 -9 45 -20 100 -29 201 -28
335 0 61 2 128 6 150 3 22 8 56 11 76 3 20 14 61 24 92 11 30 17 58 14 61 -4
3 0 6 7 6 7 0 10 3 7 7 -4 3 0 15 10 25 9 10 13 18 9 18 -3 0 5 18 18 39 14
21 22 42 18 47 -4 4 -1 4 6 0 6 -4 12 -3 12 3 0 5 11 23 25 39 13 16 21 32 17
36 -4 4 0 6 8 4 8 -1 14 4 15 12 1 8 6 14 12 13 7 -2 21 8 31 22 11 13 22 21
26 18 3 -3 6 -1 6 5 0 7 5 12 10 12 6 0 20 9 32 20 12 10 25 17 30 14 4 -3 8
0 8 5 0 6 3 11 8 10 13 -2 52 13 52 20 0 4 8 7 18 8 13 1 42 7 60 12 1 1 4 1
7 2 2 0 19 5 37 10 18 6 46 12 62 14 16 3 31 6 33 8 4 5 174 0 218 -7z"/>
</g>
</svg>
